<?xml version="1.0" encoding="UTF-8"?>
<svg id="book-min" xmlns="http://www.w3.org/2000/svg" width="40" height="40" viewBox="0 0 60 59" version="1.1" xmlns:xlink="http://www.w3.org/1999/xlink">
<title>Click here to see more</title>
    <desc>An opened book with a brain floating above it to represent the excitement of learning</desc>
<g fill="#000" fill-rule="nonzero" xmlns="http://www.w3.org/2000/svg">
<path d="M55.143 30.953a2 2 0 00-1.963-1.623h-1.931l-.142-.851a2.01 2.01 0 00-1.671-1.657c-.19-.03-.382-.05-.571-.076a6.1 6.1 0 00-.76-4.459 4.092 4.092 0 00-2.965-5.474 8.509 8.509 0 00-8.313-6.946c-.1 0-.189.013-.284.016a4.068 4.068 0 00-6.223-.774A6.864 6.864 0 0026.586 8a6.943 6.943 0 00-5.458 2.688 4.981 4.981 0 00-6.366 4.476 4.116 4.116 0 00-2.521 3.792c.003.287.037.573.1.853a8.048 8.048 0 00-.959 6.9c-.268.037-.542.07-.8.108-.86.13-1.54.798-1.684 1.656l-.142.854H6.82a2 2 0 00-1.962 1.619L.479 53.428A3 3 0 003.43 57h20.854c.828 1.366 3.344 2 5.716 2 2.347 0 4.839-.619 5.691-2H56.57a3 3 0 002.951-3.571zM15.265 20.766a2.112 2.112 0 011.08-3.922 2.074 2.074 0 011.679.848A1 1 0 1019.63 16.5a4.04 4.04 0 00-2.836-1.6 3.04 3.04 0 012.965-2.407c.122.006.244.02.364.04-.08.205-.15.414-.21.626a1 1 0 001.936.5c.114-.44.288-.86.519-1.252A4.938 4.938 0 0126.586 10a4.857 4.857 0 012.649.8c-.15.421-.23.864-.235 1.311a1 1 0 002 0 2.103 2.103 0 114.207 0 1 1 0 002 0c0-.077-.019-.15-.023-.227a6.491 6.491 0 015.922 5.006 4.058 4.058 0 00-1.294.645 1 1 0 001.2 1.6 2.108 2.108 0 112.145 3.603 1 1 0 00.426 1.9.987.987 0 00.424-.095c.265-.128.515-.285.747-.467a4.271 4.271 0 01-.846 4.265l-.024.025a4.319 4.319 0 01-5.1.936A3.969 3.969 0 0140.3 29a3.406 3.406 0 00.264-3.52 1 1 0 10-1.787.9c.329.66.124 1.463-.482 1.885a1.509 1.509 0 01-2.172-.554 1 1 0 10-1.789.895 3.467 3.467 0 003.116 1.928 3.43 3.43 0 001.255-.247c.357.313.75.581 1.172.8a6.16 6.16 0 004.619.427 6.374 6.374 0 01-4.118 2.525 1 1 0 00.316 1.975 8.218 8.218 0 001.774-.518c.308.545.558 1.12.746 1.717.034.104.052.213.052.323 0 .432-.258.823-.656.992-.46.178-.982.038-1.291-.347a6.383 6.383 0 00-2.927-1.945c-2.161-.724-2.995-1.371-3.349-2.075a9.6 9.6 0 001.533-.32 1 1 0 10-.588-1.912 7.578 7.578 0 01-1.726.317 7.422 7.422 0 01-3.314-.5 1 1 0 00-1.121.279 4.282 4.282 0 01-6.906-5.007 1.003 1.003 0 00-1.721-1.031c-.239.406-.43.838-.572 1.287a1.5 1.5 0 01-1.421-1.474v-.025a.989.989 0 00-1-.987 1.01 1.01 0 00-1 1.012 3.48 3.48 0 003.105 3.451c.004.335.034.67.091 1a6.111 6.111 0 01-6.914-8.369c.224.226.473.425.744.593a1 1 0 001.032-1.713zm-4.4 8.033c.461-.068.937-.128 1.41-.19a8.074 8.074 0 008.77 3.558 6.264 6.264 0 009.812 1.663 9.6 9.6 0 002.087.378c.483 1.832 1.879 2.942 4.812 3.925.79.248 1.496.712 2.036 1.341a3.185 3.185 0 002.416 1.135c.408 0 .812-.082 1.187-.242a3.079 3.079 0 001.869-2.831c0-.321-.05-.641-.152-.946a10.931 10.931 0 00-.884-2.035 8.43 8.43 0 003.323-5.082c.213-.253.406-.523.576-.806.335.043.67.081 1.007.137l3.61 21.714a34.326 34.326 0 00-21.744 0V38a1 1 0 00-2 0v12.522a34.332 34.332 0 00-21.744-.008zM2.651 54.632a.992.992 0 01-.21-.82L6.82 31.33h1.6L5.282 50.189a2.007 2.007 0 002.581 2.234 33.455 33.455 0 0116.517-1.048L24.082 55H3.43c-.302 0-.588-.135-.779-.368zM30 57c-2.409 0-3.791-.712-3.994-1.029l.344-4.15c1.1.274 2.176.635 3.218 1.079a.994.994 0 00.865 0 21.3 21.3 0 013.217-1.086l.344 4.156C33.791 56.288 32.409 57 30 57zm27.349-2.368a1.007 1.007 0 01-.779.368H35.921l-.3-3.632a33.465 33.465 0 0116.524 1.057 2.006 2.006 0 002.572-2.239l-3.135-18.855h1.6l4.38 22.48a.992.992 0 01-.213.821z" fill="#ff5a1f" data-original="#000000"/><path d="M26.686 22.685a1 1 0 00-.071 1.412 6.03 6.03 0 003.205 1.848 2.979 2.979 0 01-2.434 1.255 1 1 0 000 2 4.959 4.959 0 004.659-3.207 6.035 6.035 0 004.937-4.8 1 1 0 10-1.964-.376 3.986 3.986 0 01-1.656 2.539 4.082 4.082 0 01-5.264-.6 1 1 0 00-1.412-.071zM23.2 21.6a1 1 0 001-1 2.6 2.6 0 012.6-2.6 1 1 0 000-2 4.605 4.605 0 00-4.6 4.6 1 1 0 001 1zM31 2V1a1 1 0 00-2 0v1a1 1 0 002 0zM46.41 7.176l-1 1a1 1 0 101.414 1.414l1-1a1 1 0 10-1.414-1.414zM13.883 9.883a1 1 0 00.707-1.707l-1-1a1 1 0 10-1.414 1.414l1 1a1 1 0 00.707.293zM21.581 5.675a1 1 0 00.924-1.383L21.356 1.52a1 1 0 10-1.847.766l1.148 2.772a1 1 0 00.924.617zM39.95.979a1 1 0 00-1.306.541l-1.149 2.772a1 1 0 101.848.767l1.148-2.772A1 1 0 0039.95.979zM50.325 17.582a1 1 0 00.383-.077l2.771-1.148a1 1 0 00-.765-1.848l-2.772 1.148a1 1 0 00.383 1.925zM9.292 17.505a1 1 0 10.766-1.848l-2.772-1.148a1 1 0 00-.765 1.848z" fill="#ff5a1f" data-original="#000000"/>
</g>
</svg>