<?xml version="1.0"?>
<svg xmlns="http://www.w3.org/2000/svg" xmlns:xlink="http://www.w3.org/1999/xlink" xmlns:svgjs="http://svgjs.com/svgjs" version="1.1" width="512" height="512" x="0" y="0" viewBox="0 0 512 512" style="enable-background:new 0 0 512 512" xml:space="preserve" class=""><g>
<g xmlns="http://www.w3.org/2000/svg">
	<g>
		<path d="M437.018,74.987c-99.968-99.977-262.067-99.977-362.035,0c-99.977,99.959-99.977,262.059,0,362.027    c99.968,99.977,262.067,99.977,362.035,0C536.994,337.054,536.994,174.955,437.018,74.987z M418.918,418.914    c-89.984,89.967-235.853,89.967-325.837,0c-89.967-89.975-89.967-235.844,0-325.828c89.984-89.967,235.853-89.967,325.837,0    C508.885,183.07,508.885,328.939,418.918,418.914z" fill="#ff581f" data-original="#000000" style="" class=""/>
	</g>
</g>
<g xmlns="http://www.w3.org/2000/svg">
	<g>
		<path d="M274.099,256.004l81.459-81.459c5.001-4.992,5.001-13.107,0-18.099c-4.992-5-13.107-5-18.099,0L256,237.905    l-81.459-81.459c-4.992-5.009-13.107-5.009-18.099,0c-5,4.992-5,13.107,0,18.099l81.459,81.459l-81.459,81.459    c-5,4.992-5,13.107,0,18.099c4.992,5.001,13.107,5.001,18.099,0L256,274.103l81.459,81.459c4.992,5,13.107,5,18.099,0    c5.001-4.992,5.001-13.107,0-18.099L274.099,256.004z" fill="#ff581f" data-original="#000000" style="" class=""/>
	</g>
</g>
<g xmlns="http://www.w3.org/2000/svg">
</g>
<g xmlns="http://www.w3.org/2000/svg">
</g>
<g xmlns="http://www.w3.org/2000/svg">
</g>
<g xmlns="http://www.w3.org/2000/svg">
</g>
<g xmlns="http://www.w3.org/2000/svg">
</g>
<g xmlns="http://www.w3.org/2000/svg">
</g>
<g xmlns="http://www.w3.org/2000/svg">
</g>
<g xmlns="http://www.w3.org/2000/svg">
</g>
<g xmlns="http://www.w3.org/2000/svg">
</g>
<g xmlns="http://www.w3.org/2000/svg">
</g>
<g xmlns="http://www.w3.org/2000/svg">
</g>
<g xmlns="http://www.w3.org/2000/svg">
</g>
<g xmlns="http://www.w3.org/2000/svg">
</g>
<g xmlns="http://www.w3.org/2000/svg">
</g>
<g xmlns="http://www.w3.org/2000/svg">
</g>
</g></svg>
