<?xml version="1.0"?>
<svg xmlns="http://www.w3.org/2000/svg" xmlns:xlink="http://www.w3.org/1999/xlink" xmlns:svgjs="http://svgjs.com/svgjs" version="1.1" width="50" height="50" x="0" y="0" viewBox="0 0 512 512" style="enable-background:new 0 0 512 512" xml:space="preserve" class=""><g><path xmlns="http://www.w3.org/2000/svg" d="m436.975 74.988c-116.829-116.829-310.948-93.576-397.966 45.174-2.201 3.508-1.14 8.136 2.369 10.336 3.506 2.202 8.136 1.14 10.336-2.368 44.42-70.827 120.785-113.111 204.279-113.11 132.86 0 240.951 108.09 240.951 240.951s-108.09 240.951-240.951 240.951c-176.132 0-293.022-184.015-218.211-343.273 1.761-3.748.149-8.214-3.599-9.975-3.745-1.76-8.213-.15-9.975 3.599-44.185 94.056-28.249 210.63 50.802 289.681 100.029 100.029 261.929 100.036 361.965 0 100.029-100.03 100.037-261.93 0-361.966z" fill="#ff581f" data-original="#000000" style=""/><path xmlns="http://www.w3.org/2000/svg" d="m406.546 105.417c-40.154-40.153-93.621-62.267-150.553-62.267-169.593.001-268.355 187.013-179.934 326.692 2.216 3.5 6.847 4.539 10.347 2.325 3.499-2.215 4.54-6.847 2.325-10.346-82.209-129.866 9.636-303.673 167.262-303.673 52.926 0 102.627 20.553 139.948 57.874 7.022 7.023 13.55 14.606 19.403 22.539 2.459 3.333 7.155 4.038 10.486 1.582 3.332-2.458 4.04-7.154 1.582-10.486-6.297-8.534-13.317-16.688-20.866-24.24z" fill="#ff581f" data-original="#000000" style=""/><path xmlns="http://www.w3.org/2000/svg" d="m255.993 468.789c160.08 0 263.49-170.762 187.976-312.848-1.943-3.656-6.481-5.046-10.141-3.103-3.657 1.944-5.046 6.484-3.103 10.141 69.951 131.618-25.401 290.814-174.733 290.814-58.149 0-112.26-24.866-150.078-68.784-2.703-3.139-7.438-3.49-10.575-.79-3.138 2.703-3.491 7.437-.79 10.575 40.638 47.193 98.83 73.995 161.444 73.995z" fill="#ff581f" data-original="#000000" style=""/><path xmlns="http://www.w3.org/2000/svg" d="m173.153 210.375c-4.142 0-7.498 3.357-7.498 7.498v76.129c0 3.653 2.631 6.773 6.231 7.39 1.762.304 21.059.147 27.99.108 4.141-.023 7.48-3.399 7.456-7.54-.023-4.054-3.285-7.456-7.54-7.456-6.724.038-13.971.063-19.141.064v-68.695c0-4.141-3.357-7.498-7.498-7.498z" fill="#ff581f" data-original="#000000" style=""/><path xmlns="http://www.w3.org/2000/svg" d="m397.157 211.071c-4.142 0-7.498 3.357-7.498 7.498v75.498c0 4.142 3.357 7.498 7.498 7.498h31.812c4.142 0 7.498-3.357 7.498-7.498s-3.357-7.498-7.498-7.498h-24.313v-22.752h21.968c4.142 0 7.498-3.357 7.498-7.498 0-4.142-3.357-7.498-7.498-7.498h-21.968v-22.752h24.313c4.142 0 7.498-3.357 7.498-7.498 0-4.142-3.357-7.498-7.498-7.498h-31.812z" fill="#ff581f" data-original="#000000" style=""/><path xmlns="http://www.w3.org/2000/svg" d="m138.216 230.594c3.432 2.318 8.093 1.416 10.411-2.016s1.416-8.093-2.016-10.411c-30.032-20.289-71.093 1.219-71.093 37.804 0 41.624 51.624 60.412 75.34 32.162 2.663-3.172 2.249-7.902-.924-10.564-3.172-2.663-7.902-2.249-10.564.924-14.688 17.5-48.855 5.198-48.855-22.522 0-24.479 27.483-39.037 47.701-25.377z" fill="#ff581f" data-original="#000000" style=""/><path xmlns="http://www.w3.org/2000/svg" d="m344.036 286.569c-8.135 0-15.984-3.302-20.997-8.832-2.781-3.069-7.522-3.301-10.592-.519-3.068 2.781-3.301 7.523-.519 10.592 7.807 8.614 19.81 13.757 32.108 13.757 31.2 0 44.867-38.878 9.211-52.029-9.687-3.574-18.682-7.473-21.083-8.527-2.179-1.631-3.233-4.212-2.832-7.002 1.504-10.489 19.492-11.345 30.319-2.536 3.17 2.638 7.878 2.219 10.534-.94 2.664-3.17 2.254-7.901-.915-10.565-.685-.575-17.007-14.028-36.783-8.076-20.818 6.271-24.22 31.462-8.096 41.974 1.385.903 14.51 6.364 23.665 9.741 20.525 7.57 9.697 22.962-4.02 22.962z" fill="#ff581f" data-original="#000000" style=""/><path xmlns="http://www.w3.org/2000/svg" d="m299.522 255.971c0-25.141-20.454-45.595-45.595-45.595s-45.595 20.454-45.595 45.595 20.454 45.595 45.595 45.595 45.595-20.454 45.595-45.595zm-76.193 0c0-16.872 13.727-30.598 30.598-30.598s30.598 13.727 30.598 30.598-13.727 30.598-30.598 30.598-30.598-13.727-30.598-30.598z" fill="#ff581f" data-original="#000000" style=""/></g></svg>
