<?xml version="1.0"?>
<svg xmlns="http://www.w3.org/2000/svg" xmlns:xlink="http://www.w3.org/1999/xlink" xmlns:svgjs="http://svgjs.com/svgjs" version="1.1" width="50" height="50" x="0" y="0" viewBox="0 0 512 512" style="enable-background:new 0 0 512 512" xml:space="preserve" class=""><g>
<g xmlns="http://www.w3.org/2000/svg" id="XMLID_484_">
	<g id="XMLID_485_">
		<path id="XMLID_486_" d="M484.5,218.001h-29.685c-0.172-0.243-0.355-0.48-0.56-0.707L284.934,30.133    c-0.188-0.208-0.386-0.4-0.591-0.582C282.842,15.237,270.704,4.043,256,4.043s-26.842,11.195-28.342,25.508    c-0.205,0.182-0.403,0.374-0.591,0.582L58.468,216.496c-0.422,0.466-0.766,0.975-1.05,1.505H27.5c-15.163,0-27.5,12.336-27.5,27.5    v234.956c0,15.164,12.337,27.5,27.5,27.5h112.238c4.143,0,7.5-3.358,7.5-7.5s-3.357-7.5-7.5-7.5H27.5    c-6.893,0-12.5-5.607-12.5-12.5V245.501c0-6.893,5.607-12.5,12.5-12.5h143.828c0.158,5.128,0.768,10.142,1.813,15H37.5    c-4.143,0-7.5,3.358-7.5,7.5v214.956c0,4.142,3.357,7.5,7.5,7.5h437c4.143,0,7.5-3.358,7.5-7.5V255.502c0-4.142-3.357-7.5-7.5-7.5    h-73.238c-4.143,0-7.5,3.358-7.5,7.5s3.357,7.5,7.5,7.5H467v199.956H45V263.002h132.878    c12.733,29.974,42.467,51.048,77.032,51.048s64.299-21.074,77.032-51.048h34.796c4.143,0,7.5-3.358,7.5-7.5s-3.357-7.5-7.5-7.5    h-30.059c1.045-4.858,1.656-9.872,1.813-15H484.5c6.893,0,12.5,5.607,12.5,12.5v98.239c0,4.142,3.357,7.5,7.5,7.5    s7.5-3.358,7.5-7.5v-98.239C512,230.338,499.663,218.001,484.5,218.001z M256,19.043c7.444,0,13.5,6.056,13.5,13.5    s-6.056,13.5-13.5,13.5s-13.5-6.056-13.5-13.5S248.556,19.043,256,19.043z M231.683,47.389    c5.014,8.182,14.038,13.654,24.317,13.654s19.303-5.471,24.317-13.654l154.349,170.612h-97.033    c-6.01-40.264-40.813-71.248-82.724-71.248s-76.714,30.984-82.724,71.248H77.333L231.683,47.389z M254.91,299.05    c-37.853,0-68.648-30.795-68.648-68.648c0-37.853,30.796-68.648,68.648-68.648s68.648,30.795,68.648,68.648    C323.559,268.254,292.763,299.05,254.91,299.05z" fill="#ff581f" data-original="#000000" style="" class=""/>
		<path id="XMLID_491_" d="M504.5,370.762c-4.143,0-7.5,3.358-7.5,7.5v102.195c0,6.893-5.607,12.5-12.5,12.5H174.262    c-4.143,0-7.5,3.358-7.5,7.5s3.357,7.5,7.5,7.5H484.5c15.163,0,27.5-12.336,27.5-27.5V378.262    C512,374.12,508.643,370.762,504.5,370.762z" fill="#ff581f" data-original="#000000" style="" class=""/>
		<path id="XMLID_492_" d="M91.714,349.48h35.967c4.143,0,7.5-3.358,7.5-7.5s-3.357-7.5-7.5-7.5H91.714    c-8.547,0-15.5,6.953-15.5,15.5v63.344c0,8.547,6.953,15.5,15.5,15.5h35.967c4.143,0,7.5-3.358,7.5-7.5s-3.357-7.5-7.5-7.5H91.714    c-0.275,0-0.5-0.224-0.5-0.5V349.98C91.214,349.704,91.438,349.48,91.714,349.48z" fill="#ff581f" data-original="#000000" style="" class=""/>
		<path id="XMLID_493_" d="M158.865,334.48c-4.143,0-7.5,3.358-7.5,7.5v71.344c0,8.547,6.953,15.5,15.5,15.5h35.967    c4.143,0,7.5-3.358,7.5-7.5s-3.357-7.5-7.5-7.5h-35.967c-0.275,0-0.5-0.224-0.5-0.5V341.98    C166.365,337.838,163.008,334.48,158.865,334.48z" fill="#ff581f" data-original="#000000" style="" class=""/>
		<path id="XMLID_494_" d="M242.017,334.48c-8.547,0-15.5,6.953-15.5,15.5v63.344c0,8.547,6.953,15.5,15.5,15.5h27.967    c8.547,0,15.5-6.953,15.5-15.5V349.98c0-8.547-6.953-15.5-15.5-15.5H242.017z M270.483,349.98v63.344c0,0.276-0.225,0.5-0.5,0.5    h-27.967c-0.275,0-0.5-0.224-0.5-0.5V349.98c0-0.276,0.225-0.5,0.5-0.5h27.967C270.259,349.48,270.483,349.704,270.483,349.98z" fill="#ff581f" data-original="#000000" style="" class=""/>
		<path id="XMLID_497_" d="M317.168,349.48h35.967c4.143,0,7.5-3.358,7.5-7.5s-3.357-7.5-7.5-7.5h-35.967    c-8.547,0-15.5,6.953-15.5,15.5v23.672c0,8.547,6.953,15.5,15.5,15.5h27.967c0.275,0,0.5,0.224,0.5,0.5v23.672    c0,0.276-0.225,0.5-0.5,0.5h-35.967c-4.143,0-7.5,3.358-7.5,7.5s3.357,7.5,7.5,7.5h35.967c8.547,0,15.5-6.953,15.5-15.5v-23.672    c0-8.547-6.953-15.5-15.5-15.5h-27.967c-0.275,0-0.5-0.224-0.5-0.5V349.98C316.668,349.704,316.893,349.48,317.168,349.48z" fill="#ff581f" data-original="#000000" style="" class=""/>
		<path id="XMLID_498_" d="M392.319,349.48h35.967c4.143,0,7.5-3.358,7.5-7.5s-3.357-7.5-7.5-7.5h-35.967    c-8.547,0-15.5,6.953-15.5,15.5v63.344c0,8.547,6.953,15.5,15.5,15.5h35.967c4.143,0,7.5-3.358,7.5-7.5s-3.357-7.5-7.5-7.5    h-35.967c-0.275,0-0.5-0.224-0.5-0.5v-24.172h25.995c4.143,0,7.5-3.358,7.5-7.5s-3.357-7.5-7.5-7.5h-25.995V349.98    C391.819,349.704,392.044,349.48,392.319,349.48z" fill="#ff581f" data-original="#000000" style="" class=""/>
		<path id="XMLID_499_" d="M230.275,207.366c-17.97,17.971-21.227,42.869-7.414,56.682c5.634,5.633,13.302,8.357,21.611,8.357    c11.727,0,24.729-5.429,35.07-15.772c8.251-8.25,13.703-18.438,15.353-28.685c1.793-11.143-1.025-21.086-7.938-27.998    C273.146,186.14,248.248,189.396,230.275,207.366z M240.883,217.972L240.883,217.972c8.771-8.771,20.174-12.852,28.508-11.061    l-39.569,39.569C228.03,238.145,232.112,226.744,240.883,217.972z M280.086,225.565c-1.152,7.158-5.111,14.424-11.149,20.462    c-8.772,8.772-20.174,12.853-28.509,11.061l39.552-39.551C280.498,219.949,280.555,222.65,280.086,225.565z" fill="#ff581f" data-original="#000000" style="" class=""/>
	</g>
</g>















</g></svg>
