<?xml version="1.0"?>
<svg xmlns="http://www.w3.org/2000/svg" xmlns:xlink="http://www.w3.org/1999/xlink" xmlns:svgjs="http://svgjs.com/svgjs" version="1.1" width="50" height="50" x="0" y="0" viewBox="0 0 507.682 507.682" style="enable-background:new 0 0 512 512" xml:space="preserve" class=""><g><g xmlns="http://www.w3.org/2000/svg"><path d="m278.173 294.695c-1.919 0-3.839-.732-5.304-2.197l-94.164-94.164c-2.929-2.929-2.929-7.678 0-10.606l94.164-94.164c1.407-1.406 3.314-2.197 5.304-2.197 1.989 0 3.897.79 5.304 2.197l94.164 94.164c2.929 2.929 2.929 7.678 0 10.606l-94.164 94.164c-1.465 1.465-3.385 2.197-5.304 2.197zm-83.558-101.664 83.558 83.558 83.558-83.558-83.558-83.558z" fill="#ff581f" data-original="#000000" style="" data-ol-has-click-handler=""/><path d="m278.173 235.344c-1.989 0-3.896-.79-5.304-2.197l-34.813-34.813c-2.929-2.929-2.929-7.678 0-10.606l34.813-34.813c1.407-1.407 3.314-2.197 5.304-2.197 1.989 0 3.897.79 5.304 2.197l34.814 34.813c1.406 1.406 2.196 3.314 2.196 5.303s-.79 3.897-2.196 5.303l-34.814 34.813c-1.408 1.407-3.315 2.197-5.304 2.197zm-24.206-42.313 24.206 24.207 24.207-24.207-24.207-24.206z" fill="#ff581f" data-original="#000000" style="" data-ol-has-click-handler=""/><path d="m412.57 0h-70.203-71.627c-4.143 0-7.5 3.358-7.5 7.5s3.357 7.5 7.5 7.5h64.127v15.417c0 6.553 5.331 11.883 11.884 11.883h18.446c14.369 0 26.06 11.69 26.06 26.06v15.097c0 6.552 5.331 11.883 11.884 11.883h15.416v189.649h-15.417c-6.553 0-11.884 5.331-11.884 11.883v15.097c0 14.37-11.69 26.06-26.06 26.06h-18.446c-6.553 0-11.884 5.331-11.884 11.883v15.417h-179.845v-109.76c0-4.142-3.357-7.5-7.5-7.5s-7.5 3.358-7.5 7.5v109.76h-11.032c-15.691 0-29.854 6.632-39.863 17.227v-314.025c0-28.633 22.598-52.085 50.896-53.464v210.502c0 4.142 3.357 7.5 7.5 7.5s7.5-3.358 7.5-7.5v-210.569h85.719c4.143 0 7.5-3.358 7.5-7.5s-3.357-7.5-7.5-7.5h-93.219-8.442c-35.815 0-64.953 29.138-64.953 64.953v349.675s1.102 16.395 1.462 18.101c5.688 24.227 27.463 42.325 53.401 42.325h198.914v25.127c0 2.704 1.456 5.199 3.81 6.529 1.147.648 2.419.971 3.69.971 1.341 0 2.68-.359 3.868-1.075l20.9-12.583 20.07 12.522c2.314 1.443 5.226 1.517 7.608.195 2.383-1.322 3.861-3.833 3.861-6.558v-25.127h34.345c4.143 0 7.5-3.358 7.5-7.5v-446.569c0-11.572-9.414-20.986-20.986-20.986zm-6.313 80.34v-11.98c0-22.64-18.419-41.06-41.06-41.06h-15.33v-12.3h61.863c3.764 0 6.826 3.062 6.826 6.826v58.514zm-56.39 272.689h15.33c22.641 0 41.06-18.419 41.06-41.06v-11.98h12.3v59.354c0 3.301-2.686 5.986-5.986 5.986h-62.703v-12.3zm26.845 133.634-12.501-7.799c-2.395-1.493-5.423-1.517-7.838-.062l-13.47 8.11v-83.049h33.809zm41.844-26.608h-26.845v-8.534h26.845zm0-23.534h-26.845v-32.658h26.845zm0-47.658h-34.345-48.809-206.414c-17.274 0-31.328 14.054-31.328 31.329 0 17.274 14.054 31.329 31.328 31.329h65.924c4.143 0 7.5-3.358 7.5-7.5s-3.357-7.5-7.5-7.5h-65.924c-9.003 0-16.328-7.325-16.328-16.329s7.325-16.329 16.328-16.329h198.915v32.658h-102.991c-4.143 0-7.5 3.358-7.5 7.5s3.357 7.5 7.5 7.5h102.991v8.534h-198.914c-21.98 0-39.863-17.883-39.863-39.863s17.883-39.863 39.863-39.863h213.378 70.203 5.986z" fill="#ff581f" data-original="#000000" style="" data-ol-has-click-handler=""/></g></g></svg>
