<?xml version="1.0"?>
<svg xmlns="http://www.w3.org/2000/svg" xmlns:xlink="http://www.w3.org/1999/xlink" xmlns:svgjs="http://svgjs.com/svgjs" version="1.1" width="50" height="50" x="0" y="0" viewBox="0 0 496.01 496.01" style="enable-background:new 0 0 512 512" xml:space="preserve" class=""><g>
<g xmlns="http://www.w3.org/2000/svg">
	<g>
		<path d="M456.005,64.01H349.061c-6.32-13.304-15.16-25.416-26.352-35.448c-24.032-21.528-55.088-31.4-87.4-27.856    c-38.872,4.288-72.112,29.168-88.448,63.304H40.005c-22.056,0-40,17.944-40,40v304c0,22.056,17.944,40,40,40h96v32h-32v16h288v-16    h-32v-32h96c22.056,0,40-17.944,40-40v-304C496.005,81.954,478.061,64.01,456.005,64.01z M432.005,352.01v-224h-73.256    c0.744-5.264,1.256-10.584,1.256-16h88v256h-400v-256h88.04c0,5.408,0.496,10.728,1.256,16H64.005v224H432.005z M416.005,144.01    v192h-160v-48h48c13.232,0,24-10.768,24-24v-8h16v-16h-16v-16h16v-16h-16v-17.728c12.96-13.216,22.248-29.032,27.368-46.272    H416.005z M152.693,100.362c5.152-43.704,40.632-78.928,84.368-83.744c3.712-0.408,7.408-0.616,11.064-0.616    c23.696,0,46.064,8.496,63.904,24.48c20.32,18.2,31.976,44.272,31.976,71.528c0,26.296-10.496,50.864-29.544,69.168l-2.456,2.36    v24.472h-16v16h16v16h-96v16h96v8c0,4.416-3.592,8-8,8h-112c-4.408,0-8-3.584-8-8v-8h16v-16h-16v-16h96v-16h-96v-24.472    l-2.456-2.36C159.645,160.13,149.125,130.674,152.693,100.362z M168.005,190.282v17.728h-16v16h16v16h-16v16h16v8    c0,13.232,10.768,24,24,24h48v48h-160v-192h60.8C145.933,161.186,155.045,177.066,168.005,190.282z M16.005,104.01    c0-13.232,10.768-24,24-24h100.624c-1.552,5.184-2.656,10.544-3.424,16h-89.2c-8.824,0-16,7.176-16,16v256h-16V104.01z     M344.005,480.01h-192v-32h192V480.01z M480.005,408.01c0,13.232-10.768,24-24,24h-416c-13.232,0-24-10.768-24-24v-24h464V408.01z     M480.005,368.01h-16v-256c0-8.824-7.176-16-16-16h-89.296c-0.792-5.432-1.944-10.776-3.504-16h100.8c13.232,0,24,10.768,24,24    V368.01z" fill="#ff581f" data-original="#000000" style="" class=""/>
	</g>
</g>
<g xmlns="http://www.w3.org/2000/svg">
	<g>
		<rect x="216.005" y="400.01" width="64" height="16" fill="#ff581f" data-original="#000000" style="" class=""/>
	</g>
</g>
<g xmlns="http://www.w3.org/2000/svg">
	<g>
		<path d="M328.005,94.466l-19.76-7.408l8.736-19.208l-24.816-24.816l-19.208,8.728l-7.408-19.752h-35.088l-7.408,19.752    l-19.208-8.728L179.029,67.85l8.736,19.208l-19.76,7.408v35.088l19.752,7.408l-8.728,19.208l24.808,24.816l19.208-8.728    l7.416,19.752h35.088l7.408-19.752l19.208,8.728l24.816-24.816l-8.728-19.208l19.752-7.408V94.466z M312.005,118.466    l-17.728,6.648l-1.264,3.432c-0.456,1.216-0.944,2.424-1.488,3.592l-1.528,3.328l7.832,17.224l-9.136,9.136l-17.224-7.832    l-3.328,1.528c-1.168,0.544-2.376,1.032-3.592,1.488l-3.432,1.264l-6.656,17.736h-12.912l-6.648-17.728l-3.432-1.264    c-1.216-0.456-2.424-0.944-3.592-1.488l-3.328-1.528l-17.224,7.832l-9.136-9.136l7.832-17.224l-1.528-3.328    c-0.544-1.168-1.032-2.376-1.488-3.592l-1.264-3.432l-17.736-6.656v-12.912l17.728-6.648l1.264-3.432    c0.448-1.216,0.936-2.408,1.48-3.576l1.544-3.336l-7.84-17.24l9.136-9.128l17.224,7.832l3.328-1.528    c1.168-0.544,2.376-1.032,3.592-1.488l3.432-1.264l6.656-17.736h12.912l6.648,17.728l3.432,1.264    c1.216,0.456,2.424,0.944,3.592,1.488l3.328,1.528l17.224-7.832l9.136,9.128l-7.84,17.24l1.544,3.336    c0.544,1.168,1.032,2.36,1.48,3.576l1.264,3.432l17.736,6.656V118.466z" fill="#ff581f" data-original="#000000" style="" class=""/>
	</g>
</g>
<g xmlns="http://www.w3.org/2000/svg">
	<g>
		<path d="M248.005,80.01c-17.648,0-32,14.352-32,32s14.352,32,32,32s32-14.352,32-32S265.653,80.01,248.005,80.01z M248.005,128.01    c-8.824,0-16-7.176-16-16c0-8.824,7.176-16,16-16c8.824,0,16,7.176,16,16S256.829,128.01,248.005,128.01z" fill="#ff581f" data-original="#000000" style="" class=""/>
	</g>
</g>
<g xmlns="http://www.w3.org/2000/svg">
	<g>
		<rect x="320.005" y="304.01" width="16" height="16" fill="#ff581f" data-original="#000000" style="" class=""/>
	</g>
</g>
<g xmlns="http://www.w3.org/2000/svg">
	<g>
		<rect x="352.005" y="304.01" width="16" height="16" fill="#ff581f" data-original="#000000" style="" class=""/>
	</g>
</g>
<g xmlns="http://www.w3.org/2000/svg">
	<g>
		<rect x="384.005" y="304.01" width="16" height="16" fill="#ff581f" data-original="#000000" style="" class=""/>
	</g>
</g>
<g xmlns="http://www.w3.org/2000/svg">
	<g>
		<rect x="96.005" y="304.01" width="16" height="16" fill="#ff581f" data-original="#000000" style="" class=""/>
	</g>
</g>
<g xmlns="http://www.w3.org/2000/svg">
	<g>
		<rect x="128.005" y="304.01" width="16" height="16" fill="#ff581f" data-original="#000000" style="" class=""/>
	</g>
</g>
<g xmlns="http://www.w3.org/2000/svg">
	<g>
		<rect x="160.005" y="304.01" width="16" height="16" fill="#ff581f" data-original="#000000" style="" class=""/>
	</g>
</g>
<g xmlns="http://www.w3.org/2000/svg">
</g>
<g xmlns="http://www.w3.org/2000/svg">
</g>
<g xmlns="http://www.w3.org/2000/svg">
</g>
<g xmlns="http://www.w3.org/2000/svg">
</g>
<g xmlns="http://www.w3.org/2000/svg">
</g>
<g xmlns="http://www.w3.org/2000/svg">
</g>
<g xmlns="http://www.w3.org/2000/svg">
</g>
<g xmlns="http://www.w3.org/2000/svg">
</g>
<g xmlns="http://www.w3.org/2000/svg">
</g>
<g xmlns="http://www.w3.org/2000/svg">
</g>
<g xmlns="http://www.w3.org/2000/svg">
</g>
<g xmlns="http://www.w3.org/2000/svg">
</g>
<g xmlns="http://www.w3.org/2000/svg">
</g>
<g xmlns="http://www.w3.org/2000/svg">
</g>
<g xmlns="http://www.w3.org/2000/svg">
</g>
</g></svg>
