<?xml version="1.0"?>
<svg xmlns="http://www.w3.org/2000/svg" xmlns:xlink="http://www.w3.org/1999/xlink" xmlns:svgjs="http://svgjs.com/svgjs" version="1.1" width="50" height="50" x="0" y="0" viewBox="0 0 512.003 512.003" style="enable-background:new 0 0 512 512" xml:space="preserve" class=""><g><g xmlns="http://www.w3.org/2000/svg"><path d="m475.684 19.211h-439.365c-20.026 0-36.319 16.293-36.319 36.32v297.995c0 20.026 16.293 36.319 36.319 36.319h165.64v21.777c0 9.138-4.398 17.747-11.479 22.47l-18.744 12.504h-14.902c-9.649 0-17.499 7.851-17.499 17.5v11.196c0 9.649 7.85 17.5 17.499 17.5h81.667c4.143 0 7.5-3.357 7.5-7.5s-3.357-7.5-7.5-7.5h-81.667c-1.378 0-2.499-1.121-2.499-2.5v-11.196c0-1.379 1.121-2.5 2.499-2.5h198.335c1.378 0 2.499 1.121 2.499 2.5v11.196c0 1.379-1.121 2.5-2.499 2.5h-81.668c-4.143 0-7.5 3.357-7.5 7.5s3.357 7.5 7.5 7.5h81.668c9.649 0 17.499-7.851 17.499-17.5v-11.196c0-9.649-7.85-17.5-17.499-17.5h-14.903l-18.745-12.504c-7.08-4.723-11.478-13.333-11.478-22.47v-21.777h165.64c20.026 0 36.319-16.293 36.319-36.319v-297.995c.001-20.027-16.292-36.32-36.318-36.32zm-162.487 427.359.038.025h-114.468l.038-.025c11.367-7.582 18.154-20.647 18.154-34.948v-21.777h78.085v21.777c0 14.301 6.786 27.365 18.153 34.948zm183.806-93.045c0 11.756-9.563 21.319-21.319 21.319-11.908 0-427.915 0-439.364 0-11.756 0-21.319-9.563-21.319-21.319v-297.994c0-11.756 9.563-21.32 21.319-21.32h439.364c11.756 0 21.319 9.564 21.319 21.32z" fill="#ff581f" data-original="#000000" style="" data-ol-has-click-handler="" class=""/><path d="m480.807 62.053c0-6.422-5.225-11.646-11.646-11.646-17.638 0-408.642 0-426.318 0-6.422 0-11.646 5.225-11.646 11.646v284.948c0 6.422 5.225 11.646 11.647 11.646h426.316c6.423 0 11.647-5.225 11.647-11.646v-124.973c0-4.143-3.357-7.5-7.5-7.5s-7.5 3.357-7.5 7.5v121.62h-419.612v-241.152h419.612v84.533c0 4.143 3.357 7.5 7.5 7.5s7.5-3.357 7.5-7.5c.001-3.764 0-122.995 0-124.976zm-404.577 25.443h-30.035v-22.089h30.035zm389.577 0h-374.577v-22.089h374.576v22.089z" fill="#ff581f" data-original="#000000" style="" data-ol-has-click-handler="" class=""/><path d="m369.041 336.622h19.621c11.992 0 20.747-11.329 17.703-22.941v.001l-8-30.523c1.715-3.148 2.69-6.755 2.69-10.586 0-9.612-6.14-17.814-14.702-20.896v-67.483c0-6.17-3.427-11.72-8.942-14.484h-.001l-111.622-55.927c-7.622-3.818-16.723-3.817-24.343 0l-111.623 55.927c-11.916 5.971-11.915 22.998.001 28.968l29.932 14.997v68.008c0 9.409 5.053 17.979 13.188 22.364 50.275 27.109 111.18 27.051 161.349 0 8.135-4.386 13.188-12.955 13.188-22.364 0-8.176 0-60.107 0-68.008l23.875-11.962v49.964c-8.563 3.083-14.703 11.285-14.703 20.897 0 3.831.976 7.438 2.691 10.587l-8 30.521c-3.043 11.598 5.693 22.94 17.698 22.94zm-36.563-54.94c0 3.886-2.033 7.396-5.307 9.161-45.826 24.711-101.378 24.661-147.11 0-3.273-1.765-5.307-5.275-5.307-9.161v-7.482c49.801 23.781 107.892 23.796 157.724 0zm0-24.294c-49.152 26.181-108.499 26.219-157.724 0v-36.198l66.69 33.415c7.716 3.864 16.82 3.766 24.343 0 0-.001 0-.001 0-.001l66.69-33.414v36.198zm-78.863-95.398c-12.242 0-22.202 9.96-22.202 22.203s9.96 22.203 22.202 22.203c9.612 0 17.813-6.14 20.896-14.702h83.351l-98.794 49.499c-3.412 1.711-7.489 1.711-10.905.001l-111.621-55.927c-.894-.447-.903-1.696-.001-2.147l111.622-55.927c3.41-1.709 7.487-1.712 10.905 0l98.795 49.5h-83.352c-3.082-8.563-11.284-14.703-20.896-14.703zm7.203 22.203c0 3.972-3.231 7.203-7.203 7.203s-7.202-3.231-7.202-7.203 3.23-7.203 7.202-7.203 7.203 3.231 7.203 7.203zm118.035 81.176c3.972 0 7.202 3.231 7.202 7.203 0 4.058-3.501 7.203-7.202 7.203-3.574 0-7.203-2.963-7.203-7.203-.001-3.971 3.231-7.203 7.203-7.203zm-13.003 52.115 6.23-23.769c2.136.686 4.411 1.06 6.772 1.06s4.636-.374 6.772-1.06l6.23 23.769v.001c.55 2.096-1.027 4.137-3.193 4.137h-19.621c-2.166 0-3.74-2.041-3.19-4.138z" fill="#ff581f" data-original="#000000" style="" data-ol-has-click-handler="" class=""/></g></g></svg>
