<?xml version="1.0"?>
<svg xmlns="http://www.w3.org/2000/svg" xmlns:xlink="http://www.w3.org/1999/xlink" xmlns:svgjs="http://svgjs.com/svgjs" version="1.1" width="50" height="50" x="0" y="0" viewBox="0 0 512 512" style="enable-background:new 0 0 512 512" xml:space="preserve" class=""><g><g xmlns="http://www.w3.org/2000/svg"><path d="m495.016 262.528-18.431-6.17v-31.104c0-16.079-1.733-32.083-5.156-47.655 10.149-7.573 14.032-21.479 8.569-33.461-19.328-42.384-50.173-78.325-89.199-103.938-40.076-26.299-86.689-40.2-134.799-40.2s-94.723 13.901-134.799 40.2c-39.026 25.613-69.871 61.554-89.199 103.938-5.464 11.982-1.581 25.888 8.569 33.461-3.423 15.572-5.156 31.576-5.156 47.655v31.104l-18.431 6.17c-10.159 3.401-16.984 12.887-16.984 23.606v87.868c0 10.718 6.825 20.204 16.984 23.606l43.366 14.517c2.568 11.678 12.99 20.443 25.419 20.443 10.446 0 18.944-8.504 18.944-18.956v-167.089c0-10.452-8.498-18.955-18.944-18.955-12.429 0-22.851 8.765-25.419 20.442l-9.935 3.326v-26.083c0-14.255 1.46-28.442 4.343-42.277.743.062 1.488.093 2.234.093 3.244 0 6.496-.582 9.626-1.752 6.876-2.569 12.342-7.663 15.391-14.346 15.02-32.936 38.997-60.869 69.338-80.779 3.464-2.272 4.429-6.922 2.156-10.386-2.272-3.463-6.924-4.425-10.385-2.155-32.711 21.465-58.562 51.582-74.757 87.096-1.386 3.037-3.869 5.353-6.992 6.52-3.122 1.166-6.512 1.046-9.544-.34-6.266-2.861-9.036-10.292-6.175-16.565 18.152-39.806 47.123-73.563 83.781-97.62 37.625-24.691 81.391-37.742 126.569-37.742s88.944 13.051 126.568 37.741c36.658 24.058 65.629 57.814 83.781 97.621 2.861 6.272.091 13.703-6.178 16.566-1.642.75-3.379 1.131-5.165 1.131-4.88 0-9.342-2.87-11.367-7.313-16.196-35.514-42.047-65.631-74.757-87.096-33.544-22.013-72.578-33.65-112.882-33.65-28.271 0-55.674 5.628-81.446 16.727-3.804 1.639-5.56 6.051-3.922 9.855 1.639 3.803 6.05 5.559 9.855 3.922 23.888-10.288 49.294-15.504 75.513-15.504 37.371 0 73.56 10.786 104.653 31.192 30.341 19.91 54.318 47.844 69.338 80.778 4.457 9.773 14.276 16.089 25.016 16.089.749 0 1.494-.03 2.233-.09 2.885 13.838 4.345 28.027 4.345 42.284v26.083l-9.936-3.326c-2.567-11.677-12.99-20.442-25.419-20.442-10.446 0-18.944 8.503-18.944 18.955v167.089c0 10.452 8.498 18.956 18.944 18.956 12.43 0 22.852-8.765 25.419-20.443l9.935-3.326v23.259c0 27.547-22.41 49.957-49.957 49.957h-93.767c-1.826-8.552-9.445-14.985-18.539-14.985h-87.088c-10.452 0-18.956 8.498-18.956 18.944 0 14.351 11.684 26.025 26.044 26.025h72.912c10.413 0 19.418-6.138 23.582-14.984h95.813c35.817 0 64.957-29.14 64.957-64.957v-28.28l18.432-6.17c10.158-3.402 16.983-12.888 16.983-23.606v-87.868c0-10.719-6.825-20.205-16.984-23.606zm-420.272 20.109v-29.024c0-6.09 4.946-11.044 11.025-11.044 2.175 0 3.944 1.774 3.944 3.955v167.089c0 2.182-1.77 3.956-3.944 3.956-6.079 0-11.025-4.955-11.025-11.045v-88.852c0-4.143-3.357-7.5-7.5-7.5s-7.5 3.357-7.5 7.5v78.432l-37.997-12.72c-4.036-1.351-6.747-5.121-6.747-9.382v-87.868c0-4.261 2.711-8.03 6.746-9.381l37.998-12.72v18.604c0 4.143 3.357 7.5 7.5 7.5s7.5-3.358 7.5-7.5zm217.488 214.363h-72.912c-6.09 0-11.044-4.946-11.044-11.025 0-2.175 1.774-3.944 3.956-3.944h87.088c2.182 0 3.956 1.77 3.956 3.944 0 6.079-4.954 11.025-11.044 11.025zm204.768-122.998c0 4.261-2.711 8.031-6.746 9.382l-37.998 12.72v-80.288c0-4.143-3.357-7.5-7.5-7.5s-7.5 3.357-7.5 7.5v90.708c0 6.09-4.946 11.045-11.025 11.045-2.175 0-3.944-1.774-3.944-3.956v-167.09c0-2.181 1.77-3.955 3.944-3.955 6.079 0 11.025 4.954 11.025 11.044v27.283c0 4.143 3.357 7.5 7.5 7.5s7.5-3.357 7.5-7.5v-16.863l37.998 12.72c4.035 1.351 6.746 5.12 6.746 9.381z" fill="#ff581f" data-original="#000000" style="" class=""/><path d="m256 436.568h.133c65.417-.072 118.615-53.315 118.615-118.75s-53.198-118.677-118.615-118.75c-.044 0-.089 0-.133 0s-.089 0-.133 0c-65.417.072-118.615 53.315-118.615 118.75s53.198 118.677 118.615 118.75zm-25.955-57.157h51.91c-6.82 26.934-17.432 42.157-25.955 42.157s-19.135-15.222-25.955-42.157zm-77.524-54.093h55.702c.32 13.631 1.513 26.824 3.503 39.093h-48.412c-6.009-11.906-9.791-25.121-10.793-39.093zm103.479-111.25c8.54 0 19.178 15.284 25.996 42.319h-51.991c6.817-27.035 17.455-42.319 25.995-42.319zm29.149 57.32c1.977 11.501 3.288 24.538 3.628 38.931h-65.554c.341-14.392 1.651-27.429 3.628-38.931zm74.33 38.93h-55.702c-.319-13.571-1.502-26.708-3.477-38.931h48.467c5.962 11.865 9.714 25.023 10.712 38.931zm0 15c-1.003 13.972-4.784 27.186-10.794 39.093h-48.412c1.991-12.269 3.183-25.462 3.503-39.093zm-151.256-15h-55.702c.998-13.908 4.75-27.066 10.712-38.931h48.467c-1.975 12.223-3.158 25.36-3.477 38.931zm15 15h65.554c-.342 14.46-1.663 27.552-3.656 39.093h-58.242c-1.993-11.541-3.314-24.633-3.656-39.093zm59.398 92.789c3.107-4.991 6.136-11.25 8.972-19.065 2.192-6.042 4.111-12.623 5.741-19.631h42.106c-13.822 18.676-33.756 32.568-56.819 38.696zm56.938-161.719h-42.188c-1.637-7.069-3.569-13.705-5.778-19.793-2.836-7.815-5.865-14.073-8.972-19.065 23.13 6.145 43.112 20.1 56.938 38.858zm-110.18-38.858c-3.107 4.991-6.136 11.25-8.972 19.065-2.209 6.088-4.141 12.724-5.778 19.793h-42.188c13.826-18.758 33.808-32.713 56.938-38.858zm-56.819 161.881h42.106c1.63 7.008 3.549 13.589 5.741 19.631 2.836 7.815 5.865 14.074 8.972 19.065-23.063-6.128-42.997-20.02-56.819-38.696z" fill="#ff581f" data-original="#000000" style="" class=""/></g></g></svg>
