<?xml version="1.0"?>
<svg xmlns="http://www.w3.org/2000/svg" xmlns:xlink="http://www.w3.org/1999/xlink" xmlns:svgjs="http://svgjs.com/svgjs" version="1.1" width="50" height="50" x="0" y="0" viewBox="0 0 128 128" style="enable-background:new 0 0 512 512" xml:space="preserve" class=""><g><g xmlns="http://www.w3.org/2000/svg"><path d="M64,33.25c-17.1,0-30.5,12.822-30.5,29.19,0,15.854,6.857,24.45,11.864,30.726,2.146,2.69,3.932,4.943,4.805,7.177h-.857a1.75,1.75,0,0,0-1.75,1.75v5.786a1.75,1.75,0,0,0,1.75,1.75H50.75v4.041a1.751,1.751,0,0,0,1.75,1.75h2.3a9.318,9.318,0,0,0,18.4,0h2.3a1.751,1.751,0,0,0,1.75-1.75v-4.041h1.437a1.749,1.749,0,0,0,1.75-1.75v-5.786a1.749,1.749,0,0,0-1.75-1.75h-.856c.873-2.234,2.659-4.487,4.8-7.177C87.643,86.89,94.5,78.294,94.5,62.44,94.5,46.072,81.1,33.25,64,33.25ZM57.875,80.375H55.687A2.189,2.189,0,0,1,53.5,78.188v-.25a2.188,2.188,0,1,1,4.375,0Zm8.75,19.968h-5.25V83.875h5.25Zm10.312,3.5v2.286H51.062v-2.286Zm-8.815,14.2a5.824,5.824,0,0,1-9.749-2.622H69.628A5.839,5.839,0,0,1,68.122,118.042Zm5.628-6.122H54.25v-2.291h19.5ZM79.9,90.983c-2.593,3.251-4.874,6.119-5.757,9.36H70.125V83.875h2.187A5.693,5.693,0,0,0,78,78.188v-.25a5.688,5.688,0,1,0-11.375,0v2.437h-5.25V77.938a5.688,5.688,0,1,0-11.375,0v.25a5.693,5.693,0,0,0,5.687,5.687h2.188v16.468H53.857c-.883-3.241-3.164-6.109-5.757-9.36C43.155,84.784,37,77.069,37,62.44c0-14.406,11.86-25.69,27-25.69S91,48.034,91,62.44C91,77.069,84.845,84.784,79.9,90.983ZM70.125,80.375V77.938a2.188,2.188,0,1,1,4.375,0v.25a2.19,2.19,0,0,1-2.188,2.187Z" fill="#ff581f" data-original="#000000" style=""/><path d="M74.773,41.536a1.75,1.75,0,1,0-1.445,3.187,20.067,20.067,0,0,1,8.794,7.611,1.75,1.75,0,1,0,2.968-1.855A23.555,23.555,0,0,0,74.773,41.536Z" fill="#ff581f" data-original="#000000" style=""/><path d="M64,25.942a1.75,1.75,0,0,0,1.75-1.75V6.5a1.75,1.75,0,0,0-3.5,0V24.192A1.75,1.75,0,0,0,64,25.942Z" fill="#ff581f" data-original="#000000" style=""/><path d="M42.706,30.367a1.75,1.75,0,1,0,3.031-1.75L36.891,13.3a1.75,1.75,0,1,0-3.032,1.75Z" fill="#ff581f" data-original="#000000" style=""/><path d="M30.617,42.456,15.3,33.609a1.75,1.75,0,1,0-1.75,3.032l15.322,8.846a1.75,1.75,0,1,0,1.75-3.031Z" fill="#ff581f" data-original="#000000" style=""/><path d="M26.192,63.75A1.75,1.75,0,0,0,24.442,62H6.75a1.75,1.75,0,0,0,0,3.5H24.442A1.75,1.75,0,0,0,26.192,63.75Z" fill="#ff581f" data-original="#000000" style=""/><path d="M28.867,82.013,13.545,90.859a1.75,1.75,0,0,0,1.75,3.032l15.322-8.847a1.75,1.75,0,1,0-1.75-3.031Z" fill="#ff581f" data-original="#000000" style=""/><path d="M82.9,31.008a1.748,1.748,0,0,0,2.39-.641l8.847-15.322a1.75,1.75,0,0,0-3.032-1.75L82.263,28.617A1.751,1.751,0,0,0,82.9,31.008Z" fill="#ff581f" data-original="#000000" style=""/><path d="M98.259,45.722a1.747,1.747,0,0,0,.874-.235l15.322-8.846a1.75,1.75,0,0,0-1.75-3.032L97.383,42.456a1.75,1.75,0,0,0,.876,3.266Z" fill="#ff581f" data-original="#000000" style=""/><path d="M121.25,62H103.558a1.75,1.75,0,1,0,0,3.5H121.25a1.75,1.75,0,0,0,0-3.5Z" fill="#ff581f" data-original="#000000" style=""/><path d="M114.455,90.859,99.133,82.013a1.75,1.75,0,1,0-1.75,3.031l15.322,8.847a1.75,1.75,0,1,0,1.75-3.032Z" fill="#ff581f" data-original="#000000" style=""/></g></g></svg>
