<?xml version="1.0"?>
<svg xmlns="http://www.w3.org/2000/svg" xmlns:xlink="http://www.w3.org/1999/xlink" xmlns:svgjs="http://svgjs.com/svgjs" version="1.1" width="50" height="50" x="0" y="0" viewBox="0 0 74 74" style="enable-background:new 0 0 512 512" xml:space="preserve" class=""><g><path xmlns="http://www.w3.org/2000/svg" d="M11.929,24.156a1,1,0,0,1-.874-1.484A29.542,29.542,0,0,1,31.472,7.881a1,1,0,0,1,.371,1.965A27.546,27.546,0,0,0,12.805,23.64,1,1,0,0,1,11.929,24.156Z" fill="#ff5a1f" data-original="#000000" style=""/><path xmlns="http://www.w3.org/2000/svg" d="M37,14.732a6.366,6.366,0,1,1,6.366-6.366A6.373,6.373,0,0,1,37,14.732ZM37,4a4.366,4.366,0,1,0,4.366,4.366A4.371,4.371,0,0,0,37,4Z" fill="#ff5a1f" data-original="#000000" style=""/><path xmlns="http://www.w3.org/2000/svg" d="M23.154,63.071a.991.991,0,0,1-.483-.125A29.551,29.551,0,0,1,7.881,42.528a1,1,0,0,1,1.965-.371A27.554,27.554,0,0,0,23.64,61.2a1,1,0,0,1-.486,1.875Z" fill="#ff5a1f" data-original="#000000" style=""/><path xmlns="http://www.w3.org/2000/svg" d="M8.366,43.366A6.366,6.366,0,1,1,14.731,37,6.373,6.373,0,0,1,8.366,43.366Zm0-10.732A4.366,4.366,0,1,0,12.731,37,4.371,4.371,0,0,0,8.366,32.634Z" fill="#ff5a1f" data-original="#000000" style=""/><path xmlns="http://www.w3.org/2000/svg" d="M42.342,66.137a1,1,0,0,1-.185-1.983A27.546,27.546,0,0,0,61.2,50.36a1,1,0,1,1,1.75.968A29.542,29.542,0,0,1,42.528,66.119.985.985,0,0,1,42.342,66.137Z" fill="#ff5a1f" data-original="#000000" style=""/><path xmlns="http://www.w3.org/2000/svg" d="M37,72a6.366,6.366,0,1,1,6.366-6.366A6.372,6.372,0,0,1,37,72Zm0-10.732a4.366,4.366,0,1,0,4.366,4.366A4.371,4.371,0,0,0,37,61.268Z" fill="#ff5a1f" data-original="#000000" style=""/><path xmlns="http://www.w3.org/2000/svg" d="M65.136,32.658a1,1,0,0,1-.982-.815A27.554,27.554,0,0,0,50.36,12.8a1,1,0,0,1,.969-1.75,29.551,29.551,0,0,1,14.79,20.418,1,1,0,0,1-.8,1.168A.985.985,0,0,1,65.136,32.658Z" fill="#ff5a1f" data-original="#000000" style=""/><path xmlns="http://www.w3.org/2000/svg" d="M65.634,43.366A6.366,6.366,0,1,1,72,37,6.373,6.373,0,0,1,65.634,43.366Zm0-10.732A4.366,4.366,0,1,0,70,37,4.371,4.371,0,0,0,65.634,32.634Z" fill="#ff5a1f" data-original="#000000" style=""/><path xmlns="http://www.w3.org/2000/svg" d="M23.746,32.728a1,1,0,0,1-.808-.411,5.078,5.078,0,0,1-1.117-4.07,1,1,0,0,1,1.944.473,3.3,3.3,0,0,0,.788,2.418,1,1,0,0,1-.807,1.59Z" fill="#ff5a1f" data-original="#000000" style=""/><path xmlns="http://www.w3.org/2000/svg" d="M35.144,26.734a1,1,0,0,1-.806-.405,3.855,3.855,0,0,0-2.067-1.391,1,1,0,1,1,.395-1.96,5.88,5.88,0,0,1,3.281,2.162,1,1,0,0,1-.8,1.594Z" fill="#ff5a1f" data-original="#000000" style=""/><path xmlns="http://www.w3.org/2000/svg" d="M44.079,27.393a1,1,0,0,1-.972-.768,3.071,3.071,0,0,0-1.18-1.752,1,1,0,1,1,1.058-1.7,5.119,5.119,0,0,1,2.068,2.984,1,1,0,0,1-.741,1.2A.983.983,0,0,1,44.079,27.393Z" fill="#ff5a1f" data-original="#000000" style=""/><path xmlns="http://www.w3.org/2000/svg" d="M53.119,32.552a1,1,0,0,1-.54-.159c-.126-.081-2.815-1.742-5.216-.027A1,1,0,0,1,46.2,30.738c3.526-2.517,7.3-.129,7.462-.026a1,1,0,0,1-.544,1.84Z" fill="#ff5a1f" data-original="#000000" style=""/><path xmlns="http://www.w3.org/2000/svg" d="M50.294,45.011a1,1,0,0,1-.732-1.681c.886-.951.558-2.772.358-3.393a1,1,0,0,1,1.9-.625c.045.137,1.083,3.366-.794,5.381A1,1,0,0,1,50.294,45.011Z" fill="#ff5a1f" data-original="#000000" style=""/><path xmlns="http://www.w3.org/2000/svg" d="M46.81,53.824H42.9a1,1,0,0,1-.965-.741,18.063,18.063,0,0,0-2.586-5.374,9.306,9.306,0,0,1-2.982-2.081,9.631,9.631,0,0,1-.994.049A9.476,9.476,0,0,1,28.088,42.4,7.976,7.976,0,1,1,22,27.687a8.109,8.109,0,0,1,10.281-4.878,8.452,8.452,0,0,1,10.468.139,10.065,10.065,0,0,1,1.658-.134c5.1,0,9.261,3.589,9.684,8.252A8.038,8.038,0,0,1,56.8,37.039a8.352,8.352,0,0,1-5.895,7.826,9.015,9.015,0,0,1-2.526,2.263c-.851.91-1.067,2.905-.589,5.516a1,1,0,0,1-.983,1.18Zm-3.163-2h2c-.262-2.236-.113-4.806,1.486-6.272a1.014,1.014,0,0,1,.308-.193,7,7,0,0,0,2.034-1.921.994.994,0,0,1,.534-.385A6.4,6.4,0,0,0,54.8,37.039a6.074,6.074,0,0,0-2.313-4.71,1,1,0,0,1-.369-.739c-.146-3.8-3.535-6.776-7.714-6.776A7.732,7.732,0,0,0,42.679,25a1.006,1.006,0,0,1-.91-.25,6.262,6.262,0,0,0-4.334-1.688A6.334,6.334,0,0,0,33.144,24.7a1.006,1.006,0,0,1-1.08.177,6.018,6.018,0,0,0-2.456-.514,6.1,6.1,0,0,0-5.855,4.406,1,1,0,0,1-.707.694,5.974,5.974,0,0,0,1.541,11.746,5.878,5.878,0,0,0,3.222-.946,1,1,0,0,1,1.376.278,7.391,7.391,0,0,0,6.188,3.14,7.176,7.176,0,0,0,1.218-.1,1.008,1.008,0,0,1,.935.345,7.248,7.248,0,0,0,2.692,1.982.982.982,0,0,1,.55.355A20.259,20.259,0,0,1,43.647,51.824Z" fill="#ff5a1f" data-original="#000000" style=""/><path xmlns="http://www.w3.org/2000/svg" d="M36.759,45.566a1,1,0,0,1-.336-1.942h0a7.976,7.976,0,0,0,3.215-2.413,4.684,4.684,0,0,1,6.64-.929,1,1,0,1,1-1.162,1.628,2.713,2.713,0,0,0-3.89.516,9.884,9.884,0,0,1-4.134,3.083A1,1,0,0,1,36.759,45.566Z" fill="#ff5a1f" data-original="#000000" style=""/><path xmlns="http://www.w3.org/2000/svg" d="M42.122,45.566a3.794,3.794,0,0,1-3.5-2.32,1,1,0,0,1,1.842-.779,1.8,1.8,0,0,0,1.658,1.1,1,1,0,0,1,0,2Z" fill="#ff5a1f" data-original="#000000" style=""/><path xmlns="http://www.w3.org/2000/svg" d="M28.356,42.1a1,1,0,0,1-.879-.522,7.074,7.074,0,0,1,1.105-8.682,6.5,6.5,0,0,1,4.65-1.924,6.6,6.6,0,0,1,3.164.807,2.307,2.307,0,0,1-.012,4.056,2.225,2.225,0,0,1-2.3-.085,1,1,0,1,1,1.09-1.677.236.236,0,0,0,.258,0,.307.307,0,0,0,.005-.544,4.594,4.594,0,0,0-5.469.8,5.083,5.083,0,0,0-.732,6.285,1,1,0,0,1-.878,1.477Z" fill="#ff5a1f" data-original="#000000" style=""/><path xmlns="http://www.w3.org/2000/svg" d="M33.805,33a1,1,0,0,1-.275-1.962c.56-.16.863-.409.81-.666A.982.982,0,0,1,35,29.136a1.022,1.022,0,0,1,1.259.675,2.3,2.3,0,0,1-.194,1.719,3.083,3.083,0,0,1-1.984,1.429A1.016,1.016,0,0,1,33.805,33Z" fill="#ff5a1f" data-original="#000000" style=""/><path xmlns="http://www.w3.org/2000/svg" d="M42.4,36.8a1,1,0,0,1-.726-.313,6.594,6.594,0,0,1-1.477-6.549,2.308,2.308,0,0,1,3.987-.746,2.221,2.221,0,0,1,.346,2.277,5.456,5.456,0,0,1-.387.766A1,1,0,1,1,42.426,31.2a3.722,3.722,0,0,0,.249-.491.24.24,0,0,0-.044-.255.307.307,0,0,0-.535.1,4.593,4.593,0,0,0,1.027,4.558A1,1,0,0,1,42.4,36.8Z" fill="#ff5a1f" data-original="#000000" style=""/><path xmlns="http://www.w3.org/2000/svg" d="M40.9,33.438a1,1,0,0,1-.894-.55,1.3,1.3,0,0,0-.591-.676.471.471,0,0,0-.178-.013,1,1,0,0,1-.945-1.763,2.316,2.316,0,0,1,1.725-.131,3.081,3.081,0,0,1,1.774,1.682,1,1,0,0,1-.891,1.451Z" fill="#ff5a1f" data-original="#000000" style=""/><path xmlns="http://www.w3.org/2000/svg" d="M27.938,30.579a1,1,0,0,1-.976-1.222,3.8,3.8,0,0,1,5.559-2.468,1,1,0,0,1-.976,1.745,1.8,1.8,0,0,0-1.983.149,1.778,1.778,0,0,0-.651,1.018A1,1,0,0,1,27.938,30.579Z" fill="#ff5a1f" data-original="#000000" style=""/><path xmlns="http://www.w3.org/2000/svg" d="M20.953,39.074a1,1,0,0,1,0-2,1.8,1.8,0,0,0,1.655-1.1,1.772,1.772,0,0,0,.065-1.207,1,1,0,0,1,1.918-.57,3.8,3.8,0,0,1-3.632,4.881Z" fill="#ff5a1f" data-original="#000000" style=""/><path xmlns="http://www.w3.org/2000/svg" d="M50.271,37.531a3.8,3.8,0,0,1-2.941-1.393,1,1,0,1,1,1.549-1.264,1.8,1.8,0,0,0,1.956.566,1,1,0,0,1,.629,1.9A3.79,3.79,0,0,1,50.271,37.531Z" fill="#ff5a1f" data-original="#000000" style=""/></g></svg>
